# xmcd CD database file
#
# Track frame offsets:
#	150
#	12061
#	25038
#	36415
#	47084
#	60050
#	71655
#	83152
#	95655
#	108244
#	119691
#	133632
#	146708
#	157894
#	169528
#	182672
#	197205
#	210425
#	222938
#	238668
#	254938
#	266193
#
# Disc length: 3729 seconds
#
# Revision: 0
# Processed by: cddbd v1.5.2PL0 Copyright (c) Steve Scherf et al.
# Submitted via: CDex 1.70beta2
#
DISCID=3e0e8f16
DTITLE=Milt Jackson - Bepob Story CD 062
DYEAR=2008
DGENRE=Jazz
TTITLE0=Bobbin' With Robin
TTITLE1=Autumn Breeze
TTITLE2=Slits
TTITLE3=Baggy Eyes
TTITLE4=Hearing Bells
TTITLE5=Junior
TTITLE6=Junior
TTITLE7=Bluesology
TTITLE8=Bluesology
TTITLE9=Bubu
TTITLE10=Milt Meets Sid
TTITLE11=D And E
TTITLE12=Yesterdays
TTITLE13=Between The Devil And The Deep Blue Sea
TTITLE14=Autumn Breze
TTITLE15=Movin' Nicely
TTITLE16='Round Midnight
TTITLE17=Bluesology
TTITLE18=Softly As In A Morning Rise
TTITLE19=Love Me Pretty Baby
TTITLE20=Heart And Soul
TTITLE21=True Blues
EXTD=YEAR: 2008
EXTT0=
EXTT1=
EXTT2=
EXTT3=
EXTT4=
EXTT5=
EXTT6=
EXTT7=
EXTT8=
EXTT9=
EXTT10=
EXTT11=
EXTT12=
EXTT13=
EXTT14=
EXTT15=
EXTT16=
EXTT17=
EXTT18=
EXTT19=
EXTT20=
EXTT21=
PLAYORDER=
